<?xml version="1.0" standalone="no"?>
<!DOCTYPE svg PUBLIC "-//W3C//DTD SVG 20010904//EN"
 "http://www.w3.org/TR/2001/REC-SVG-20010904/DTD/svg10.dtd">
<svg version="1.0" xmlns="http://www.w3.org/2000/svg"
 width="736.000000pt" height="736.000000pt" viewBox="0 0 736.000000 736.000000"
 preserveAspectRatio="xMidYMid meet">

<g transform="translate(0.000000,736.000000) scale(0.100000,-0.100000)"
fill="#000000" stroke="none">
<path d="M4546 6892 c-3 -5 -16 -7 -28 -5 -13 2 -88 -16 -168 -42 -220 -70
-221 -71 -435 -124 -110 -27 -226 -59 -258 -70 -72 -25 -171 -51 -347 -91
-173 -40 -417 -109 -584 -165 -72 -24 -185 -56 -251 -70 -137 -30 -182 -43
-425 -115 -96 -29 -213 -63 -260 -75 -115 -29 -278 -84 -286 -96 -3 -5 -7
-454 -10 -997 -2 -543 -6 -1101 -9 -1239 l-5 -253 -81 -81 c-169 -171 -238
-266 -274 -377 -24 -75 -17 -180 16 -252 33 -70 130 -170 235 -240 43 -30 85
-61 92 -69 10 -13 11 -118 6 -518 l-6 -502 49 -31 c57 -37 160 -70 214 -70 22
0 56 7 76 15 31 13 46 14 92 4 48 -10 672 -15 871 -6 l45 2 77 -155 c75 -150
96 -202 153 -379 30 -93 33 -85 -47 -126 -77 -40 -158 -133 -158 -180 1 -58
66 -82 252 -92 84 -5 120 -2 170 11 154 42 249 90 274 138 14 27 14 58 0 311
-9 155 -19 319 -23 365 l-6 82 111 0 110 0 7 -125 c8 -137 1 -276 -21 -400 -7
-44 -14 -114 -14 -156 0 -69 2 -77 28 -102 38 -36 142 -83 242 -108 151 -38
388 -12 426 47 16 23 15 27 -1 64 -24 52 -100 123 -170 157 -41 20 -54 31 -49
43 4 8 18 47 31 85 69 205 184 461 214 476 16 8 376 30 643 38 l179 6 3 515
c1 296 7 549 13 595 6 44 14 162 17 263 4 100 9 182 10 182 2 0 23 -15 47 -33
106 -81 240 -111 457 -104 133 4 152 7 229 36 46 17 103 45 128 62 64 45 177
183 219 268 34 70 35 76 24 112 -11 32 -11 42 2 60 11 18 25 22 74 24 80 2
137 32 160 84 14 31 24 41 50 46 66 12 107 119 67 174 -11 15 -24 42 -28 60
-4 18 -15 41 -25 51 -10 10 -26 30 -35 44 -21 31 -77 52 -102 37 -15 -9 -13
-10 15 -11 22 0 42 -9 59 -26 22 -22 25 -32 20 -67 -7 -50 -44 -87 -86 -87
-39 0 -54 20 -41 55 6 15 8 30 5 33 -3 3 -5 1 -5 -4 0 -5 -4 -15 -9 -23 -7
-11 -15 -9 -42 12 -19 13 -49 28 -67 32 -33 7 -33 8 -27 48 13 92 28 134 63
187 44 64 92 100 137 100 40 0 63 -23 45 -45 -10 -12 -10 -15 3 -15 20 0 28
-36 15 -66 -6 -13 -35 -38 -65 -54 -57 -32 -93 -79 -93 -120 0 -22 3 -20 25
17 15 25 46 54 78 74 60 37 73 52 82 96 7 38 -19 109 -46 123 -50 27 -130 -9
-188 -85 -33 -43 -71 -148 -71 -196 0 -17 -9 -36 -21 -47 -37 -31 -52 -73 -57
-167 -5 -86 -30 -175 -50 -175 -5 0 -31 -21 -58 -46 -61 -57 -163 -124 -229
-152 -84 -35 -137 -37 -248 -8 -175 45 -270 109 -351 240 -25 40 -46 77 -46
81 0 4 23 32 51 63 101 110 171 234 216 379 24 78 27 105 27 238 1 130 -2 160
-22 225 -34 108 -108 244 -166 302 l-49 50 7 136 c4 76 11 169 16 207 13 86
27 362 40 769 10 313 6 386 -24 386 -18 0 -78 -42 -84 -57 -4 -15 24 -17 33
-3 3 6 11 10 17 10 20 0 -7 -799 -37 -1095 -8 -82 -16 -185 -18 -228 -2 -42
-7 -76 -13 -75 -24 7 -1 814 32 1127 l7 63 -134 -6 c-371 -19 -484 -29 -1376
-123 -89 -9 -160 -20 -157 -25 3 -5 10 -5 16 -2 6 4 8 2 4 -4 -3 -6 2 -12 11
-14 15 -3 14 -5 -5 -10 -12 -3 -20 -2 -16 3 3 5 -4 9 -16 9 -12 0 -18 5 -15
10 8 14 27 15 -505 -30 -261 -23 -536 -45 -610 -50 -74 -6 -154 -12 -178 -16
-53 -7 -82 2 -82 26 0 14 11 19 58 24 151 18 382 50 517 72 83 14 201 29 263
34 62 6 156 19 210 30 53 11 140 24 192 30 52 5 149 17 215 25 129 16 428 50
535 60 36 4 94 13 130 21 36 9 129 24 208 34 79 10 187 26 240 35 385 63 454
75 463 80 12 8 12 32 -1 40 -5 3 -119 -12 -252 -34 -134 -22 -313 -49 -398
-60 -85 -11 -198 -29 -250 -40 -52 -11 -140 -25 -195 -30 -119 -13 -314 -36
-480 -57 -66 -9 -172 -22 -237 -30 -64 -7 -156 -22 -205 -33 -48 -10 -132 -22
-185 -25 -53 -3 -142 -15 -197 -26 -96 -19 -148 -27 -526 -85 -287 -45 -486
-81 -479 -88 11 -10 -6 -9 -71 8 -67 17 -235 94 -235 107 0 4 33 -8 73 -28 72
-37 171 -74 191 -73 6 0 -16 10 -49 23 -81 30 -175 77 -175 88 0 15 40 8 145
-24 102 -31 138 -32 99 -3 -10 8 -15 15 -10 15 11 0 992 217 1266 280 118 27
355 81 525 120 171 39 348 79 395 90 47 11 204 47 350 80 146 33 275 63 288
66 23 7 31 24 10 24 -7 0 -161 -34 -343 -75 -181 -42 -397 -91 -480 -110 -82
-19 -220 -50 -305 -70 -85 -20 -184 -42 -220 -50 -36 -8 -135 -30 -220 -50
-85 -20 -184 -42 -220 -50 -160 -35 -970 -226 -1017 -240 -48 -14 -57 -14
-108 0 -76 23 -68 31 48 50 l32 6 -25 -16 c-29 -19 -22 -18 85 14 39 12 169
39 290 61 249 45 400 83 940 233 209 59 472 125 585 147 113 23 278 59 367 81
90 21 198 44 240 49 159 20 354 72 320 85 -9 4 -28 4 -42 1 -24 -6 -25 -5 -26
46 -1 29 -5 67 -9 83 -6 25 -8 27 -14 13 -5 -10 -12 -18 -17 -18 -4 0 -6 8 -2
18 6 15 3 14 -17 -3 l-24 -20 17 25 c33 48 37 59 28 65 -5 3 -12 1 -15 -3z
m-26 -37 c0 -21 -35 -68 -57 -76 -31 -12 -32 -11 -26 27 3 22 13 34 31 41 31
12 52 15 52 8z m-98 -64 c2 -27 0 -37 -8 -34 -7 2 -54 -9 -106 -25 -51 -16
-123 -37 -160 -47 -37 -10 -65 -22 -62 -26 3 -5 -2 -6 -10 -3 -18 7 -316 -67
-310 -77 2 -4 -4 -5 -13 -3 -22 6 -521 -116 -663 -162 -58 -18 -154 -45 -215
-59 -160 -37 -409 -101 -570 -145 -182 -49 -354 -78 -305 -51 20 11 414 116
509 136 41 9 140 38 220 64 218 74 404 126 625 176 110 25 261 63 335 84 75
21 199 53 276 71 139 32 396 111 425 130 24 16 28 12 32 -29z m158 -100 c0
-16 -10 -21 -47 -27 -27 -3 -56 -11 -66 -16 -10 -5 -59 -14 -108 -19 -49 -5
-160 -27 -247 -48 -86 -22 -238 -56 -337 -76 -99 -20 -188 -38 -199 -41 -10
-4 -16 -2 -13 3 3 5 32 15 64 22 97 20 364 82 443 102 104 26 385 88 442 98
26 4 51 10 55 14 10 11 13 8 13 -12z m-1475 -351 c-32 -14 -511 -147 -625
-174 -58 -13 -161 -34 -230 -46 -69 -11 -136 -23 -150 -26 l-25 -4 25 11 c14
6 81 26 150 44 69 18 172 46 230 63 135 39 359 92 396 93 16 0 70 11 119 24
50 12 99 23 110 23 l20 1 -20 -9z m675 -390 c0 -5 -4 -10 -10 -10 -5 0 -10 5
-10 10 0 6 5 10 10 10 6 0 10 -4 10 -10z m-53 -6 c-3 -3 -12 -4 -19 -1 -8 3
-5 6 6 6 11 1 17 -2 13 -5z m-87 -46 c0 -4 -5 -8 -11 -8 -5 0 -7 5 -4 10 6 9
-7 14 -27 11 -4 0 -5 6 -1 15 5 13 8 13 24 -2 11 -9 19 -21 19 -26z m-34 -35
c-10 -10 -19 5 -10 18 6 11 8 11 12 0 2 -7 1 -15 -2 -18z m-119 -13 c-6 -24
12 -38 24 -19 10 16 12 8 3 -15 -3 -9 -12 -16 -19 -16 -14 0 -29 45 -20 60 11
17 18 11 12 -10z m73 16 c0 -2 -7 -9 -15 -16 -13 -11 -14 -10 -9 4 5 14 24 23
24 12z m95 -6 c-3 -5 -14 -10 -23 -10 -15 0 -15 2 -2 10 20 13 33 13 25 0z
m-81 -35 c3 -8 1 -15 -3 -15 -5 0 -11 7 -15 15 -3 8 -1 15 3 15 5 0 11 -7 15
-15z m-28 -62 c-4 -4 -11 -1 -16 7 -16 25 -11 35 7 17 9 -9 13 -20 9 -24z
m-106 -19 c0 -14 -3 -15 -17 -3 -10 7 -20 15 -22 16 -2 2 5 3 17 3 14 0 22 -6
22 -16z m-54 -3 c-9 -14 22 -34 40 -27 13 5 14 4 6 -7 -7 -8 -9 -17 -5 -20 3
-4 2 -7 -4 -7 -6 0 -13 6 -16 14 -3 7 -15 16 -26 19 -16 4 -21 0 -21 -14 0
-10 -4 -19 -9 -19 -14 0 -1 43 17 58 19 14 25 16 18 3z m67 -76 c-10 -14 -24
-25 -31 -25 -9 0 -5 10 10 29 27 34 46 30 21 -4z m-85 -20 c-3 -3 -9 2 -12 12
-6 14 -5 15 5 6 7 -7 10 -15 7 -18z m1318 -410 c9 -8 11 -15 6 -15 -5 0 -15 7
-22 15 -7 8 -9 15 -6 15 4 0 14 -7 22 -15z m581 -27 c-3 -8 -6 -5 -6 6 -1 11
2 17 5 13 3 -3 4 -12 1 -19z m-497 1 c0 -7 -10 -9 -25 -5 -25 6 -36 -8 -12
-17 6 -2 8 -8 4 -13 -4 -5 -12 -2 -17 6 -17 27 -11 40 20 40 17 0 30 -5 30
-11z m-83 -24 c8 -9 13 -19 10 -22 -6 -5 -37 21 -37 31 0 10 11 6 27 -9z m-37
-25 c0 -5 -9 -10 -21 -10 -11 0 -17 5 -14 10 3 6 13 10 21 10 8 0 14 -4 14
-10z m-30 -46 c0 -14 -3 -14 -15 -4 -8 7 -15 14 -15 16 0 2 7 4 15 4 8 0 15
-7 15 -16z m-60 -24 c0 -5 -5 -10 -11 -10 -5 0 -7 5 -4 10 3 6 8 10 11 10 2 0
4 -4 4 -10z m87 3 c-4 -3 -2 -12 4 -20 9 -9 8 -13 0 -13 -6 0 -11 2 -11 4 0 2
-3 11 -6 20 -4 10 -1 16 7 16 7 0 9 -3 6 -7z m-57 -13 c0 -5 -2 -10 -4 -10 -3
0 -8 5 -11 10 -3 6 -1 10 4 10 6 0 11 -4 11 -10z m-16 -45 c2 -6 -14 -11 -38
-11 -34 -1 -37 0 -17 7 15 6 21 14 17 24 -4 12 -2 13 14 3 11 -7 21 -17 24
-23z m-91 -31 c-5 -14 -3 -15 16 -4 13 6 25 10 27 7 2 -2 -7 -10 -21 -17 -14
-7 -28 -11 -31 -7 -7 7 2 37 10 37 3 0 3 -7 -1 -16z m-1296 -20 c151 -38 306
-150 394 -286 84 -130 126 -315 109 -471 -43 -374 -330 -679 -700 -743 -225
-38 -456 39 -615 207 -76 81 -120 155 -157 264 -20 61 -23 89 -23 220 0 129 3
160 23 225 117 372 467 626 829 604 46 -3 109 -12 140 -20z m1856 2 c32 -9 91
-31 131 -50 75 -34 160 -101 150 -117 -3 -5 -2 -9 3 -8 30 7 103 -80 156 -186
93 -187 100 -419 18 -630 -35 -91 -120 -223 -175 -272 -23 -21 -51 -46 -62
-55 -10 -10 -28 -26 -38 -37 -30 -32 -149 -100 -228 -131 -215 -84 -468 -60
-652 60 -131 86 -239 229 -288 384 -14 42 -21 103 -25 191 -5 113 -3 142 16
214 86 332 330 569 661 642 99 22 240 20 333 -5z m-483 10 c0 -2 -7 -7 -16
-10 -8 -3 -12 -2 -9 4 6 10 25 14 25 6z m-178 -44 c-7 -2 -10 -8 -7 -12 3 -5
12 -7 19 -4 8 3 17 1 20 -5 7 -11 -32 -36 -42 -27 -3 3 1 6 9 6 8 0 5 6 -9 16
-18 12 -19 18 -9 28 6 8 16 11 22 8 5 -3 4 -7 -3 -10z m73 -11 c-6 -5 -25 10
-25 20 0 5 6 4 14 -3 8 -7 12 -15 11 -17z m-144 -72 c-15 -12 -31 -17 -44 -13
-13 4 -17 2 -13 -5 5 -7 1 -8 -10 -4 -11 4 -13 8 -6 11 7 2 9 8 6 14 -4 6 3 5
16 -2 17 -9 26 -8 43 4 31 22 36 19 8 -5z m-1931 -73 c0 -2 -8 -10 -17 -17
-16 -13 -17 -12 -4 4 13 16 21 21 21 13z m-210 -288 c0 -10 -19 -9 -45 2 -16
7 -14 8 12 7 18 -1 33 -5 33 -9z m1687 -154 c-3 -3 -12 -4 -19 -1 -8 3 -5 6 6
6 11 1 17 -2 13 -5z m2843 -606 c0 -22 -7 -52 -15 -68 -26 -51 -108 -78 -135
-45 -18 22 -7 40 26 43 42 3 84 50 91 102 6 39 7 41 20 25 7 -11 13 -36 13
-57z m-248 17 c22 -15 46 -41 54 -60 19 -45 18 -94 -1 -101 -21 -8 -93 40
-107 71 -6 14 -15 25 -20 25 -16 0 3 -43 33 -78 34 -38 34 -40 13 -70 -25 -36
-7 -39 29 -6 57 54 84 66 109 52 47 -27 58 -56 36 -102 -20 -46 -55 -60 -143
-58 -60 1 -84 -3 -97 -15 -16 -14 -20 -14 -54 12 -19 15 -38 33 -40 40 -3 7 6
35 19 61 18 38 26 72 30 147 4 54 9 103 13 109 11 17 82 2 126 -27z m274 -139
c-3 -13 -15 -35 -26 -49 -18 -23 -24 -25 -45 -15 -30 13 -31 24 -7 37 10 5 32
29 48 52 26 38 29 40 32 20 2 -13 1 -33 -2 -45z m-5066 -63 c30 -80 48 -250
31 -291 -16 -38 -142 -167 -230 -235 -64 -50 -91 -91 -71 -111 7 -7 20 0 43
22 18 18 35 32 37 32 3 0 5 -77 5 -170 0 -114 -4 -170 -11 -170 -16 0 -128 81
-179 129 -148 141 -171 235 -96 392 57 120 379 458 438 459 6 0 21 -25 33 -57z
m3590 -136 c0 -73 -5 -170 -10 -217 -20 -172 -35 -729 -34 -1228 l1 -513 -31
3 -31 3 -9 490 c-9 456 1 1146 21 1455 l6 95 36 26 c20 14 39 24 44 22 4 -2 7
-64 7 -136z m281 -114 c156 -77 302 -93 417 -46 86 34 123 57 208 131 38 34
73 58 80 54 29 -18 72 -61 103 -104 31 -43 33 -51 22 -71 -7 -14 -28 -28 -49
-34 -35 -10 -35 -11 -9 -12 18 -1 27 -6 24 -13 -2 -8 -20 -12 -48 -11 -42 2
-42 1 -11 -6 18 -5 35 -11 38 -14 8 -8 -75 -123 -121 -168 -44 -45 -129 -91
-210 -115 -87 -26 -306 -26 -395 0 -88 25 -108 39 -116 81 -8 43 -24 46 -24 5
0 -27 -2 -30 -20 -20 -11 6 -24 25 -29 43 -5 17 -10 24 -10 15 -2 -35 -21 -17
-21 19 0 38 -13 37 -24 -2 -3 -11 -3 1 -1 28 5 52 -12 66 -21 17 -4 -16 -11
-30 -16 -30 -5 0 -6 10 -2 23 4 12 6 111 5 219 l-1 197 73 -73 c55 -54 95 -83
158 -113z m-1431 117 c0 -20 -126 -133 -170 -153 -106 -48 -230 -62 -249 -29
-8 13 -11 14 -11 2 -1 -10 -4 -9 -10 5 -5 11 -9 14 -9 8 -1 -21 -21 -15 -21 6
0 15 10 20 48 25 26 4 81 17 122 30 41 13 107 33 145 45 39 11 88 32 110 45
49 29 45 28 45 16z m-410 -84 c0 -2 -7 -7 -16 -10 -8 -3 -12 -2 -9 4 6 10 25
14 25 6z m638 -241 c-3 -3 -9 2 -12 12 -6 14 -5 15 5 6 7 -7 10 -15 7 -18z
m68 -15 c31 0 31 -16 -1 -22 -16 -4 -30 2 -42 15 -17 20 -17 20 0 14 10 -4 30
-7 43 -7z m-96 -54 c0 -2 -7 -6 -15 -10 -8 -3 -15 -1 -15 4 0 6 7 10 15 10 8
0 15 -2 15 -4z m60 -6 c0 -5 -2 -10 -4 -10 -3 0 -8 5 -11 10 -3 6 -1 10 4 10
6 0 11 -4 11 -10z m-37 -51 c-6 -6 -10 1 -10 23 0 30 1 30 10 10 7 -15 7 -26
0 -33z m-53 21 c0 -5 -4 -10 -10 -10 -5 0 -10 5 -10 10 0 6 5 10 10 10 6 0 10
-4 10 -10z m-26 -38 c2 -4 1 -14 -5 -22 -7 -12 -9 -12 -9 3 0 14 -5 17 -22 12
-18 -5 -20 -4 -8 4 18 13 37 14 44 3z m56 -8 c0 -14 -3 -14 -15 -4 -8 7 -15
14 -15 16 0 2 7 4 15 4 8 0 15 -7 15 -16z m-76 -41 c6 -15 8 -15 17 -3 9 13
10 13 6 0 -6 -23 -30 -23 -45 0 -10 16 -10 20 2 20 8 0 17 -8 20 -17z m-1377
-18 c27 -8 65 -26 84 -40 19 -14 48 -31 65 -40 18 -8 51 -36 74 -62 61 -68
196 -274 241 -367 46 -94 52 -101 47 -57 -3 30 1 35 22 41 14 4 49 19 77 34
81 41 175 59 264 51 42 -4 81 -10 88 -15 20 -12 29 -81 35 -265 l5 -170 -13
110 c-13 106 -34 215 -41 215 -2 0 -17 -14 -33 -30 -26 -26 -38 -30 -84 -30
-61 0 -112 26 -130 65 -13 30 -41 32 -115 10 l-50 -15 -7 -71 c-7 -71 -22 -93
-49 -71 -6 5 -27 13 -44 17 -18 3 -40 16 -48 28 -19 27 -19 97 -1 123 13 17
11 26 -20 85 l-35 65 -62 1 c-66 0 -139 26 -169 59 -28 32 -38 100 -22 153
l14 46 -38 32 c-46 41 -147 93 -179 93 -12 0 -23 5 -23 10 0 15 90 12 147 -5z
m1332 1 c9 -10 8 -15 -3 -19 -11 -4 -13 -1 -9 10 4 10 2 14 -7 11 -21 -7 -23
-24 -4 -42 20 -20 11 -34 -11 -16 -15 13 -20 51 -8 63 11 11 30 8 42 -7z
m-1519 -55 c33 -63 -13 -141 -75 -125 -31 8 -32 26 -3 73 44 73 60 84 78 52z
m1540 9 c0 -5 -5 -10 -11 -10 -5 0 -7 5 -4 10 3 6 8 10 11 10 2 0 4 -4 4 -10z
m-168 -30 c5 -32 -7 -42 -14 -12 -4 16 0 42 7 42 1 0 5 -13 7 -30z m86 -12 c9
-11 10 -18 4 -18 -16 0 -42 41 -35 54 4 6 8 4 11 -4 3 -8 11 -23 20 -32z
m-1910 -40 c19 -19 14 -29 -8 -16 -20 13 -27 28 -12 28 4 0 13 -5 20 -12z
m2402 8 c0 -3 -7 -12 -16 -20 -18 -19 -57 -21 -87 -4 l-22 12 25 7 c28 8 100
11 100 5z m-2360 -46 c-11 -7 -11 -10 -2 -10 7 0 10 -5 6 -11 -10 -17 -26 15
-18 36 5 12 10 13 18 5 8 -8 7 -13 -4 -20z m2484 -47 c20 -59 21 -197 1 -282
-20 -84 -78 -192 -132 -246 -24 -24 -71 -60 -106 -81 -34 -20 -70 -44 -79 -52
-12 -10 -18 -11 -18 -4 0 7 4 12 9 12 21 0 140 135 183 208 72 120 111 245
112 362 1 52 -3 108 -7 124 -14 49 19 13 37 -41z m-787 41 c-3 -3 -12 -4 -19
-1 -8 3 -5 6 6 6 11 1 17 -2 13 -5z m-1712 -52 c-6 -6 -45 33 -45 44 0 4 11
-3 25 -16 14 -13 23 -26 20 -28z m1685 30 c0 -4 -9 -13 -20 -20 -24 -15 -26
-9 -4 12 17 18 24 20 24 8z m35 -12 c7 0 15 6 18 13 2 6 8 9 12 4 5 -4 -1 -16
-13 -27 -21 -20 -21 -20 -32 -1 -5 11 -10 23 -9 28 0 4 3 2 6 -4 2 -7 11 -13
18 -13z m51 -23 c-6 -24 -51 -56 -62 -44 -4 3 5 12 20 18 15 7 29 23 32 36 4
13 9 22 11 19 3 -3 3 -16 -1 -29z m-1816 8 c20 -24 6 -28 -15 -5 -10 11 -13
20 -8 20 6 0 16 -7 23 -15z m-54 -32 c-10 -10 -19 5 -10 18 6 11 8 11 12 0 2
-7 1 -15 -2 -18z m1792 -7 c-7 -8 -16 -12 -21 -9 -11 7 2 23 19 23 12 0 12 -2
2 -14z m-1808 -32 c0 -3 -9 -2 -20 1 -17 5 -20 2 -18 -20 2 -24 6 -26 33 -21
22 4 26 3 15 -4 -29 -19 -57 -12 -64 16 -9 35 9 57 35 43 10 -5 19 -12 19 -15z
m44 20 c9 -3 14 -10 11 -15 -7 -10 -35 0 -35 12 0 11 3 11 24 3z m2026 -18 c0
-2 -8 -10 -17 -17 -16 -13 -17 -12 -4 4 13 16 21 21 21 13z m151 -35 c44 -44
34 -125 -24 -187 -54 -59 -158 -65 -213 -13 -41 38 -32 60 62 148 100 93 126
101 175 52z m-1520 -2 c17 -17 20 -29 16 -61 -7 -55 -32 -81 -71 -72 -55 11
-76 31 -76 71 0 73 82 111 131 62z m-771 -24 c7 -8 9 -15 6 -15 -4 0 -14 7
-22 15 -9 8 -11 15 -6 15 5 0 15 -7 22 -15z m-49 -18 c-10 -9 -11 -8 -5 6 3
10 9 15 12 12 3 -3 0 -11 -7 -18z m2639 3 c22 -22 27 -87 10 -120 -14 -26 -73
-60 -104 -60 -19 0 -32 9 -46 33 -29 47 -26 90 11 132 26 29 38 35 70 35 26 0
46 -7 59 -20z m-2615 -20 c-3 -5 -11 -10 -16 -10 -6 0 -7 5 -4 10 3 6 11 10
16 10 6 0 7 -4 4 -10z m-50 -19 c3 -5 1 -12 -5 -16 -5 -3 -10 1 -10 9 0 18 6
21 15 7z m80 -1 c-3 -5 -14 -10 -23 -9 -14 0 -13 2 3 9 27 11 27 11 20 0z
m-55 -51 c0 -5 -4 -9 -10 -9 -5 0 -10 7 -10 16 0 8 5 12 10 9 6 -3 10 -10 10
-16z m-45 -37 c-8 -8 -25 10 -25 26 0 13 2 13 14 -4 8 -10 13 -21 11 -22z
m2015 -16 c0 -2 -8 -10 -17 -17 -16 -13 -17 -12 -4 4 13 16 21 21 21 13z
m-2192 -56 c-1 -28 -6 -44 -10 -36 -7 12 0 86 8 86 2 0 3 -22 2 -50z m1055
-11 c55 -46 79 -100 85 -192 5 -88 2 -89 -68 -38 -58 42 -209 215 -198 226 13
14 78 34 108 35 25 0 46 -9 73 -31z m1442 -115 c19 -8 45 -55 45 -84 0 -11
-12 -33 -26 -47 -22 -22 -32 -25 -67 -20 -74 10 -89 67 -33 123 34 34 50 39
81 28z m-1595 -18 c0 -2 -8 -10 -17 -17 -16 -13 -17 -12 -4 4 13 16 21 21 21
13z m898 -62 c58 -65 -19 -146 -99 -103 -48 25 -42 96 10 124 32 17 59 11 89
-21z m-838 -9 c13 -14 21 -25 18 -25 -2 0 -15 11 -28 25 -13 14 -21 25 -18 25
2 0 15 -11 28 -25z m2347 -87 c-3 -8 -6 -5 -6 6 -1 11 2 17 5 13 3 -3 4 -12 1
-19z m33 -10 c0 -21 -3 -29 -10 -22 -5 5 -7 19 -4 32 9 31 14 27 14 -10z
m-1320 -28 c30 -30 35 -65 15 -115 -16 -44 -18 -45 -61 -45 -32 0 -43 3 -38
12 5 8 2 9 -10 5 -10 -4 -35 -10 -57 -13 l-39 -7 0 45 c0 47 40 124 70 131 44
12 101 6 120 -13z m1270 13 c0 -5 -14 -8 -31 -9 -20 -1 -26 2 -17 7 16 11 48
12 48 2z m-24 -38 c-7 -18 15 -20 33 -2 10 10 11 9 6 -5 -8 -20 -32 -23 -55
-8 -13 9 -13 11 0 20 20 13 23 12 16 -5z m-806 -27 c47 -33 72 -86 72 -157 0
-32 -5 -69 -12 -81 -11 -20 -18 -22 -64 -17 -72 7 -156 41 -204 83 -69 59 -70
67 -16 119 69 67 83 75 140 75 36 0 60 -6 84 -22z m680 2 c0 -5 -5 -10 -11
-10 -5 0 -7 5 -4 10 3 6 8 10 11 10 2 0 4 -4 4 -10z m70 -4 c0 -8 7 -17 16
-20 9 -4 14 -9 10 -13 -7 -7 -46 25 -46 39 0 4 5 8 10 8 6 0 10 -6 10 -14z
m-50 -31 c0 -8 -4 -15 -10 -15 -5 0 -10 7 -10 15 0 8 5 15 10 15 6 0 10 -7 10
-15z m-1673 -15 c21 -8 36 -24 50 -55 11 -24 17 -48 14 -53 -9 -13 -90 -67
-136 -89 -79 -40 -162 -41 -152 -2 3 10 1 21 -3 24 -8 5 -6 42 5 92 3 13 21
38 40 58 33 32 41 35 94 35 32 0 71 -5 88 -10z m1708 -20 c3 -5 1 -10 -4 -10
-6 0 -11 5 -11 10 0 6 2 10 4 10 3 0 8 -4 11 -10z m-115 -31 c12 -8 10 -9 -7
-4 -19 5 -23 2 -23 -14 0 -12 -4 -21 -10 -21 -14 0 -12 37 3 43 18 8 21 8 37
-4z m-64 -36 c-10 -10 -19 5 -10 18 6 11 8 11 12 0 2 -7 1 -15 -2 -18z m64
-12 c0 -6 -4 -13 -10 -16 -5 -3 -10 1 -10 9 0 9 5 16 10 16 6 0 10 -4 10 -9z
m27 -23 c-3 -8 -6 -5 -6 6 -1 11 2 17 5 13 3 -3 4 -12 1 -19z m-92 -8 c3 -5 2
-10 -4 -10 -5 0 -13 5 -16 10 -3 6 -2 10 4 10 5 0 13 -4 16 -10z m58 -27 c-7
-2 -19 -2 -25 0 -7 3 -2 5 12 5 14 0 19 -2 13 -5z m-1933 -69 c0 -4 -8 -13
-17 -20 -16 -12 -16 -15 -3 -24 15 -10 27 -9 65 5 17 7 16 5 -4 -13 -29 -26
-30 -26 -59 -6 -25 17 -28 34 -10 52 13 13 28 16 28 6z m15 -30 c-9 -9 -19
-13 -23 -10 -3 4 0 11 8 16 24 15 33 11 15 -6z m-57 -57 c24 -27 8 -30 -17 -3
-14 15 -20 29 -15 37 6 10 9 10 12 -1 3 -8 11 -23 20 -33z m-80 21 c0 -7 4
-23 7 -35 5 -15 3 -23 -5 -23 -6 0 -10 6 -7 13 2 6 -3 18 -12 24 -14 11 -14
14 -1 23 8 5 15 10 16 10 0 0 1 -6 2 -12z m57 -96 c-8 -9 -35 20 -28 31 4 6
11 3 19 -8 8 -10 12 -21 9 -23z m-105 -13 c0 -5 -4 -9 -10 -9 -5 0 -10 7 -10
16 0 8 5 12 10 9 6 -3 10 -10 10 -16z m-40 1 c-20 -13 -33 -13 -25 0 3 6 14
10 23 10 15 0 15 -2 2 -10z m579 -81 c81 -10 132 -27 146 -50 5 -7 -4 -8 -28
-4 -37 7 -77 -1 -77 -14 0 -5 23 -9 51 -10 28 0 55 -3 60 -6 20 -13 7 -22 -28
-21 -53 1 -53 -17 -1 -29 32 -8 44 -16 46 -32 3 -17 -1 -20 -17 -16 -12 3 -21
1 -21 -6 0 -6 11 -11 25 -11 28 0 28 1 50 -195 8 -71 15 -178 15 -237 l0 -106
-39 -34 c-21 -18 -72 -46 -112 -63 -69 -28 -85 -30 -224 -33 -222 -5 -273 7
-260 60 19 75 179 191 281 204 84 10 83 29 -1 25 -23 -2 -26 1 -15 8 8 5 11
13 7 17 -3 4 -14 1 -23 -6 -21 -18 -27 -9 -64 110 -16 52 -52 142 -79 200 -27
58 -62 139 -78 180 -15 41 -29 78 -31 82 -4 9 312 -1 417 -13z m1081 -28 c0
-4 -35 -82 -78 -172 -43 -90 -89 -198 -101 -239 -25 -86 -41 -130 -48 -130 -2
0 -14 5 -26 12 -20 10 -21 10 -7 -6 13 -16 12 -18 -15 -16 -83 6 -85 -14 -3
-24 92 -12 233 -109 274 -188 15 -30 15 -32 -2 -45 -65 -48 -262 -62 -392 -29
-90 23 -175 68 -203 108 -32 44 -33 94 -9 288 19 144 26 177 41 188 11 7 19
18 19 25 0 8 -3 8 -12 -1 -19 -19 -25 -14 -20 18 3 21 15 36 39 51 38 24 33
50 -6 30 -17 -10 -21 -9 -21 3 0 20 34 42 93 62 35 12 46 19 38 27 -8 8 -26 6
-63 -6 -29 -9 -53 -15 -55 -13 -2 2 29 17 69 34 l73 31 208 1 c114 0 207 -4
207 -9z"/>
<path d="M3273 4403 c-19 -7 -16 -23 17 -96 37 -81 40 -149 10 -208 -23 -45
-71 -79 -112 -79 -35 0 -103 76 -146 164 -24 49 -37 66 -50 64 -42 -8 -17
-129 40 -194 33 -37 109 -69 187 -80 121 -16 222 77 221 205 -1 90 -115 243
-167 224z"/>
<path d="M5302 4690 c0 -14 2 -19 5 -12 2 6 2 18 0 25 -3 6 -5 1 -5 -13z"/>
<path d="M4573 4403 c38 -74 49 -111 45 -160 -5 -62 -33 -98 -87 -113 -94 -26
-141 -4 -218 101 -79 106 -116 123 -69 30 39 -76 80 -117 156 -155 82 -41 149
-52 223 -36 68 14 98 43 104 104 7 59 -30 138 -92 195 -39 36 -73 55 -62 34z"/>
<path d="M5321 4334 c0 -11 3 -14 6 -6 3 7 2 16 -1 19 -3 4 -6 -2 -5 -13z"/>
<path d="M5480 3005 c0 -14 5 -25 10 -25 6 0 10 11 10 25 0 14 -4 25 -10 25
-5 0 -10 -11 -10 -25z"/>
<path d="M4703 6663 c4 -6 72 -55 152 -109 80 -54 145 -101 145 -104 0 -3 -46
-17 -102 -30 -57 -13 -96 -25 -87 -27 9 -2 58 6 110 18 52 11 103 21 113 21
11 -1 41 -15 68 -31 52 -33 78 -39 78 -18 0 13 -59 54 -160 111 -36 20 -112
66 -169 101 -99 62 -162 91 -148 68z"/>
<path d="M4700 6495 c-58 -12 -184 -38 -280 -58 -247 -51 -393 -82 -560 -117
-325 -69 -877 -184 -1225 -255 -717 -146 -750 -153 -742 -162 3 -2 353 65 779
151 425 85 1084 216 1463 291 380 75 698 139 709 142 20 6 11 18 -19 25 -11 3
-67 -5 -125 -17z"/>
<path d="M4380 6330 c-52 -10 -192 -39 -310 -65 -118 -25 -244 -48 -280 -51
-36 -4 -87 -12 -115 -20 -27 -8 -115 -26 -195 -39 -397 -68 -482 -84 -487 -89
-11 -10 17 -7 232 29 116 20 242 40 280 45 39 5 108 18 155 29 47 11 130 27
185 36 55 9 161 29 235 45 74 16 194 41 265 56 72 15 134 30 140 35 11 11 14
11 -105 -11z"/>
<path d="M5278 6264 c-16 -8 -28 -19 -28 -24 0 -17 18 -11 47 15 31 27 22 32
-19 9z"/>
</g>
</svg>
